<svg xmlns="http://www.w3.org/2000/svg" aria-label="Amber Framework" viewBox="0 0 512 512"><rect fill-opacity="0" width="512" height="512" fill="#fff" rx="15%"/><path fill="#f3c095" d="M87 161l169-95-125 206-44 79z"/><path fill="#fffefc" d="M256 446L87 351l44-79L256 66l169 95v190z"/><path fill="#e67e25" d="M87 351l44-79 125 174zM316 358l-185-86 240-69z"/><g fill-opacity=".9"><path fill="#e57d25" d="M256 446L131 272l185 86z"/><path fill="#e67e26" d="M316 358l55-155 54 148z"/></g><g fill-opacity=".8"><path fill="#e68025" d="M131 272L256 66l115 137z"/><path fill="#e47e27" d="M87 351V161l44 111z"/><path fill="#e68025" d="M256 446l60-88 109-7z"/></g><path fill="#e67e25" d="M425 351l-54-148 54-42z"/><path fill="#e67e24" d="M371 203L256 66l169 95z"/></svg>