<svg xmlns="http://www.w3.org/2000/svg" aria-label="andOTP" viewBox="0 0 512 512"><rect fill-opacity="0" width="512" height="512" fill="#fff" rx="15%"/><defs><filter id="a"><feGaussianBlur stdDeviation="3"/></filter></defs><use fill="#666" filter="url(#a)" href="#b" transform="translate(2 2)"/><g fill="#6abf69"><circle id="b" cx="256" cy="256" r="192" class="shadow"/></g><path fill="#fc0" d="M256 117a139 139 0 00-139 139 139 139 0 00139 139 139 139 0 00139-139 139 139 0 00-139-139zm0 38c45 0 85 30 97 73H159c12-43 52-73 97-73zm0 115a20 20 0 0120 20 20 20 0 01-12 18l16 36h-48l15-36a20 20 0 01-11-18 20 20 0 0120-20z"/></svg>