<svg xmlns="http://www.w3.org/2000/svg" xmlns:xlink="http://www.w3.org/1999/xlink" aria-label="CentOS" viewBox="0 0 512 512"><rect fill-opacity="0" width="512" height="512" fill="#fff" rx="15%"/><g id="a"><rect width="124" height="124" x="118" y="118" fill="#9ccd2a"/><rect width="124" height="124" x="270" y="118" fill="#932279"/><rect width="124" height="124" x="270" y="270" fill="#efa724"/><rect width="124" height="124" x="118" y="270" fill="#262577"/></g><use transform="rotate(225 256 256)" xlink:href="#a"/><path fill="none" stroke="#fff" stroke-width="9" d="M118 270h124v124H118zm152 0h124v124H270zm0-152h124v124H270zm-152 0h124v124H118zm245 226l-87-88 87-88 88 88zM256 236l-88-87 88-88 88 88zM149 344l-88-88 88-88 87 88zm107 107l-88-88 88-87 88 87z"/></svg>