<svg xmlns="http://www.w3.org/2000/svg" aria-label="taiga.io" viewBox="0 0 512 512"><rect fill-opacity="0" width="512" height="512" fill="#fff" rx="15%"/><path fill="#a295ae" d="M393 119l-17 119L256 256l17-120z" opacity=".8"/><path fill="#5d6f6d" d="M120 393l17-119 119-17-17 120z" opacity=".8"/><path fill="#8cd592" d="M120 119l119 17 17 120-120-17z" opacity=".8"/><path fill="#665e74" d="M393 392l-119-17-17-120 120 17z" opacity=".8"/><path fill="#3c3647" d="M256 449l-72-96 72-96 72 96z" opacity=".8"/><path fill="#837193" d="M450 255l-96 72-96-72 96-72z" opacity=".8"/><path fill="#a2f4ac" d="M256 62l72 96-72 96-72-96z" opacity=".8"/><path fill="#7ea685" d="M63 256l96-72 96 72-96 72z" opacity=".8"/><path fill="#3c3647" d="M256 210l46 46-46 46-46-46z"/></svg>