<svg xmlns="http://www.w3.org/2000/svg" fill="#232323" aria-label="Tox" viewBox="0 0 512 512"><rect fill-opacity="0" width="512" height="512" rx="15%"/><g fill="#f0f0f0"><rect width="180" height="270" x="166" y="65" rx="90"/><rect width="294" height="220" x="109" y="207" rx="18"/></g><ellipse cx="256" cy="156" rx="59" ry="56"/><path d="m307 129c26 40-12 91-49 113 6-9 11-19 12-31m-4 113c18 6 29 21 29 44 0 8-7 14-15 14h-48c-8 0-15-6-15-14 0-23 11-38 29-44"/><circle cx="256" cy="297" r="29"/></svg>