<svg width="49" height="48" viewBox="0 0 49 48" fill="none" xmlns="http://www.w3.org/2000/svg">
<path d="M8.5 13.6C8.5 10.2397 8.5 8.55953 9.15396 7.27606C9.7292 6.14708 10.6471 5.2292 11.7761 4.65396C13.0595 4 14.7397 4 18.1 4H30.9C34.2603 4 35.9405 4 37.2239 4.65396C38.3529 5.2292 39.2708 6.14708 39.846 7.27606C40.5 8.55953 40.5 10.2397 40.5 13.6V34.4C40.5 37.7603 40.5 39.4405 39.846 40.7239C39.2708 41.8529 38.3529 42.7708 37.2239 43.346C35.9405 44 34.2603 44 30.9 44H18.1C14.7397 44 13.0595 44 11.7761 43.346C10.6471 42.7708 9.7292 41.8529 9.15396 40.7239C8.5 39.4405 8.5 37.7603 8.5 34.4V13.6Z" fill="url(#paint0_linear_994_15577)"/>
<path d="M16.5 28V36V28Z" fill="url(#paint1_linear_994_15577)"/>
<path d="M32.5 24V36V24Z" fill="url(#paint2_linear_994_15577)"/>
<path d="M24.5 16V36V16Z" fill="url(#paint3_linear_994_15577)"/>
<path d="M16.5 28V36M32.5 24V36M24.5 16V36M40.5 13.6V34.4C40.5 37.7603 40.5 39.4405 39.846 40.7239C39.2708 41.8529 38.3529 42.7708 37.2239 43.346C35.9405 44 34.2603 44 30.9 44H18.1C14.7397 44 13.0595 44 11.7761 43.346C10.6471 42.7708 9.7292 41.8529 9.15396 40.7239C8.5 39.4405 8.5 37.7603 8.5 34.4V13.6C8.5 10.2397 8.5 8.55953 9.15396 7.27606C9.7292 6.14708 10.6471 5.2292 11.7761 4.65396C13.0595 4 14.7397 4 18.1 4H30.9C34.2603 4 35.9405 4 37.2239 4.65396C38.3529 5.2292 39.2708 6.14708 39.846 7.27606C40.5 8.55953 40.5 10.2397 40.5 13.6Z" stroke="#304B78" stroke-width="2" stroke-linecap="round" stroke-linejoin="round"/>
<defs>
<linearGradient id="paint0_linear_994_15577" x1="24.5" y1="4" x2="24.5" y2="44" gradientUnits="userSpaceOnUse">
<stop stop-color="#E9EFF9"/>
<stop offset="1" stop-color="#E9EFF9" stop-opacity="0"/>
</linearGradient>
<linearGradient id="paint1_linear_994_15577" x1="24.5" y1="4" x2="24.5" y2="44" gradientUnits="userSpaceOnUse">
<stop stop-color="#E9EFF9"/>
<stop offset="1" stop-color="#E9EFF9" stop-opacity="0"/>
</linearGradient>
<linearGradient id="paint2_linear_994_15577" x1="24.5" y1="4" x2="24.5" y2="44" gradientUnits="userSpaceOnUse">
<stop stop-color="#E9EFF9"/>
<stop offset="1" stop-color="#E9EFF9" stop-opacity="0"/>
</linearGradient>
<linearGradient id="paint3_linear_994_15577" x1="24.5" y1="4" x2="24.5" y2="44" gradientUnits="userSpaceOnUse">
<stop stop-color="#E9EFF9"/>
<stop offset="1" stop-color="#E9EFF9" stop-opacity="0"/>
</linearGradient>
</defs>
</svg>
