<svg width="49" height="48" viewBox="0 0 49 48" fill="none" xmlns="http://www.w3.org/2000/svg">
<path d="M9.76866 31.9015C10.0417 31.1916 10.1782 30.8366 10.3565 30.5046C10.5148 30.2096 10.6975 29.9284 10.9028 29.6639C11.1338 29.3662 11.4028 29.0972 11.9406 28.5594L34.5001 5.99999C36.7092 3.79085 40.2909 3.79086 42.5 5.99999C44.7092 8.20914 44.7092 11.7909 42.5 14L19.9406 36.5594C19.4027 37.0973 19.1338 37.3662 18.8361 37.5972C18.5716 37.8025 18.2904 37.9852 17.9954 38.1435C17.6634 38.3218 17.3084 38.4583 16.5985 38.7313L5.5 43L9.76866 31.9015Z" fill="url(#paint0_linear_994_15569)"/>
<path d="M9.61624 32.2979C9.91079 31.5321 10.0581 31.1492 10.3107 30.9738C10.5314 30.8205 10.8046 30.7625 11.0686 30.8129C11.3707 30.8706 11.6608 31.1607 12.241 31.7409L16.7591 36.2591C17.3393 36.8393 17.6294 37.1294 17.6871 37.4315C17.7375 37.6954 17.6796 37.9686 17.5263 38.1894C17.3509 38.442 16.968 38.5893 16.2021 38.8838L5.5 43L9.61624 32.2979Z" fill="url(#paint1_linear_994_15569)"/>
<path d="M42.5 42H26.5001M5.5 43L16.5985 38.7313C17.3084 38.4583 17.6634 38.3218 17.9954 38.1435C18.2904 37.9852 18.5716 37.8025 18.8361 37.5972C19.1338 37.3662 19.4027 37.0973 19.9406 36.5594L42.5 14C44.7092 11.7909 44.7092 8.20913 42.5 5.99999C40.2909 3.79086 36.7092 3.79085 34.5001 5.99999L11.9406 28.5594C11.4028 29.0972 11.1338 29.3662 10.9028 29.6639C10.6975 29.9284 10.5148 30.2096 10.3565 30.5046C10.1782 30.8366 10.0417 31.1916 9.76866 31.9015L5.5 43ZM5.5 43L9.61624 32.2979C9.91079 31.5321 10.0581 31.1492 10.3107 30.9738C10.5314 30.8205 10.8046 30.7625 11.0686 30.8129C11.3707 30.8706 11.6608 31.1607 12.241 31.7409L16.7591 36.2591C17.3393 36.8393 17.6294 37.1294 17.6871 37.4315C17.7375 37.6954 17.6796 37.9686 17.5263 38.1894C17.3509 38.442 16.968 38.5893 16.2021 38.8838L5.5 43Z" stroke="#304B78" stroke-width="2" stroke-linecap="round" stroke-linejoin="round"/>
<defs>
<linearGradient id="paint0_linear_994_15569" x1="24.8284" y1="4.34314" x2="24.8284" y2="43" gradientUnits="userSpaceOnUse">
<stop stop-color="#E9EFF9"/>
<stop offset="1" stop-color="#E9EFF9" stop-opacity="0"/>
</linearGradient>
<linearGradient id="paint1_linear_994_15569" x1="24.8284" y1="4.34314" x2="24.8284" y2="43" gradientUnits="userSpaceOnUse">
<stop stop-color="#E9EFF9"/>
<stop offset="1" stop-color="#E9EFF9" stop-opacity="0"/>
</linearGradient>
</defs>
</svg>
