<svg width="49" height="48" viewBox="0 0 49 48" fill="none" xmlns="http://www.w3.org/2000/svg">
<path d="M15.5 9C15.5 6.23858 17.7386 4 20.5 4C23.2614 4 25.5 6.23858 25.5 9V12H27.5C30.2956 12 31.6935 12 32.7961 12.4567C34.2663 13.0657 35.4343 14.2337 36.0433 15.7039C36.5 16.8065 36.5 18.2044 36.5 21H39.5C42.2614 21 44.5 23.2386 44.5 26C44.5 28.7614 42.2614 31 39.5 31H36.5V34.4C36.5 37.7603 36.5 39.4405 35.846 40.7239C35.2708 41.8529 34.3529 42.7708 33.2239 43.346C31.9405 44 30.2603 44 26.9 44H25.5V40.5C25.5 38.0147 23.4853 36 21 36C18.5147 36 16.5 38.0147 16.5 40.5V44H14.1C10.7397 44 9.05953 44 7.77606 43.346C6.64708 42.7708 5.7292 41.8529 5.15396 40.7239C4.5 39.4405 4.5 37.7603 4.5 34.4V31H7.5C10.2614 31 12.5 28.7614 12.5 26C12.5 23.2386 10.2614 21 7.5 21H4.5C4.5 18.2044 4.5 16.8065 4.95672 15.7039C5.56569 14.2337 6.73373 13.0657 8.2039 12.4567C9.30653 12 10.7044 12 13.5 12H15.5V9Z" fill="url(#paint0_linear_994_15581)" stroke="#304B78" stroke-width="2" stroke-linecap="round" stroke-linejoin="round"/>
<defs>
<linearGradient id="paint0_linear_994_15581" x1="24.5" y1="4" x2="24.5" y2="44" gradientUnits="userSpaceOnUse">
<stop stop-color="#E9EFF9"/>
<stop offset="1" stop-color="#E9EFF9" stop-opacity="0"/>
</linearGradient>
</defs>
</svg>
