<svg width="49" height="48" viewBox="0 0 49 48" fill="none" xmlns="http://www.w3.org/2000/svg">
<path d="M23.104 43.2298C23.5468 43.4881 23.7682 43.6172 24.0806 43.6842C24.3231 43.7362 24.6769 43.7362 24.9194 43.6842C25.2318 43.6172 25.4532 43.4881 25.896 43.2298C29.7921 40.9568 40.5 33.8169 40.5 24V14.4352C40.5 12.8362 40.5 12.0367 40.2385 11.3494C40.0075 10.7423 39.632 10.2006 39.1447 9.77106C38.593 9.28488 37.8444 9.00415 36.3472 8.4427L25.6236 4.42135C25.2078 4.26543 24.9999 4.18747 24.786 4.15656C24.5963 4.12915 24.4037 4.12915 24.214 4.15656C24.0001 4.18747 23.7922 4.26543 23.3764 4.42135L12.6528 8.4427C11.1556 9.00415 10.407 9.28488 9.85532 9.77106C9.36797 10.2006 8.99255 10.7423 8.76152 11.3494C8.5 12.0367 8.5 12.8362 8.5 14.4352V24C8.5 33.8169 19.2079 40.9568 23.104 43.2298Z" fill="url(#paint0_linear_994_15573)"/>
<path d="M18.5 23L22.5 27L31.5 18M40.5 24C40.5 33.8169 29.7921 40.9568 25.896 43.2298C25.4532 43.4881 25.2318 43.6172 24.9194 43.6842C24.6769 43.7362 24.3231 43.7362 24.0806 43.6842C23.7682 43.6172 23.5468 43.4881 23.104 43.2298C19.2079 40.9568 8.5 33.8169 8.5 24V14.4352C8.5 12.8362 8.5 12.0367 8.76152 11.3494C8.99255 10.7423 9.36797 10.2006 9.85532 9.77106C10.407 9.28488 11.1556 9.00415 12.6528 8.4427L23.3764 4.42135C23.7922 4.26543 24.0001 4.18747 24.214 4.15656C24.4037 4.12915 24.5963 4.12915 24.786 4.15656C24.9999 4.18747 25.2078 4.26543 25.6236 4.42135L36.3472 8.4427C37.8444 9.00415 38.593 9.28488 39.1447 9.77106C39.632 10.2006 40.0075 10.7423 40.2385 11.3494C40.5 12.0367 40.5 12.8362 40.5 14.4352V24Z" stroke="#304B78" stroke-width="2" stroke-linecap="round" stroke-linejoin="round"/>
<defs>
<linearGradient id="paint0_linear_994_15573" x1="24.5" y1="4.136" x2="24.5" y2="43.7232" gradientUnits="userSpaceOnUse">
<stop stop-color="#E9EFF9"/>
<stop offset="1" stop-color="#E9EFF9" stop-opacity="0"/>
</linearGradient>
</defs>
</svg>
